<svg xmlns="http://www.w3.org/2000/svg" xmlns:xlink="http://www.w3.org/1999/xlink" aria-hidden="true" role="img" width="1em" height="1em" preserveAspectRatio="xMidYMid meet" viewBox="0 0 28 28">
  <g fill="none">
    <path d="M22.74 6.327a5.501 5.501 0 0 1-.495 7.212l-1.944 1.944a.75.75 0 0 1-1.06 0l-6.718-6.717a.75.75 0 0 1 0-1.06l1.944-1.945a5.501 5.501 0 0 1 7.212-.495l3.045-3.044a.75.75 0 0 1 1.06 1.06L22.74 6.327zm-2.97 7.566l1.415-1.415a4 4 0 1 0-5.657-5.657l-1.415 1.415l5.657 5.656z" fill="#fff"/>
    <path d="M12.778 11.215a.75.75 0 0 1 0 1.06l-2.127 2.127l2.947 2.947l2.126-2.126a.75.75 0 1 1 1.06 1.061L14.66 18.41l.827.826a.75.75 0 0 1 0 1.061l-1.945 1.945a5.501 5.501 0 0 1-7.212.494l-3.044 3.045a.75.75 0 0 1-1.061-1.06l3.045-3.046a5.501 5.501 0 0 1 .494-7.212l1.945-1.944a.75.75 0 0 1 1.06 0l.823.822l2.126-2.126a.75.75 0 0 1 1.06 0zM6.83 21.188a4 4 0 0 0 5.65-.007l1.415-1.414l-5.657-5.657l-1.414 1.414a4 4 0 0 0-.007 5.65l.007.007l.006.006z" fill="#fff"/>
  </g>
</svg>