<svg xmlns="http://www.w3.org/2000/svg" xmlns:xlink="http://www.w3.org/1999/xlink" aria-hidden="true" role="img" width="auto" height="auto" preserveAspectRatio="xMidYMid meet" viewBox="0 0 24 24"><g fill="none"><path d="M14.998 5a7 7 0 0 1 .24 13.996l-.24.004H9.002a7 7 0 0 1-.24-13.996L9.001 5h5.996zm0 1.5H9.002a5.5 5.5 0 0 0-.221 10.996l.221.004h5.996a5.5 5.5 0 0 0 .221-10.996l-.221-.004zM8 9a.75.75 0 0 1 .75.75v1.498h1.5a.75.75 0 0 1 0 1.5h-1.5v1.502a.75.75 0 0 1-1.5 0v-1.502h-1.5a.75.75 0 1 1 0-1.5h1.5V9.75A.75.75 0 0 1 8 9zm6.75 3.5a1.25 1.25 0 1 1 0 2.5a1.25 1.25 0 0 1 0-2.5zm2-3.5a1.25 1.25 0 1 1 0 2.5a1.25 1.25 0 0 1 0-2.5z" fill="white"/></g></svg>