<?xml version="1.0" encoding="UTF-8" standalone="no"?>
<svg
   viewBox="0 0 45 45"
   shape-rendering="crispEdges"
   version="1.1"
   id="svg6"
   sodipodi:docname="qrSunshine.svg"
   xml:space="preserve"
   inkscape:version="1.2.1 (9c6d41e410, 2022-07-14)"
   xmlns:inkscape="http://www.inkscape.org/namespaces/inkscape"
   xmlns:sodipodi="http://sodipodi.sourceforge.net/DTD/sodipodi-0.dtd"
   xmlns="http://www.w3.org/2000/svg"
   xmlns:svg="http://www.w3.org/2000/svg"><defs
     id="defs10" /><sodipodi:namedview
     id="namedview8"
     pagecolor="#ffffff"
     bordercolor="#000000"
     borderopacity="0.25"
     inkscape:showpageshadow="2"
     inkscape:pageopacity="0.0"
     inkscape:pagecheckerboard="0"
     inkscape:deskcolor="#d1d1d1"
     showgrid="false"
     inkscape:zoom="13.042192"
     inkscape:cx="30.746366"
     inkscape:cy="19.513591"
     inkscape:window-width="1920"
     inkscape:window-height="991"
     inkscape:window-x="-9"
     inkscape:window-y="-9"
     inkscape:window-maximized="1"
     inkscape:current-layer="svg6" /><path
     fill="#ffffff"
     d="M0 0h45v45H0z"
     id="path2" /><path
     stroke="#000000"
     d="M4 4.5h7m2 0h4m5 0h1m1 0h1m2 0h2m5 0h7M4 5.5h1m5 0h1m4 0h1m1 0h1m4 0h1m2 0h2m5 0h1m1 0h1m5 0h1M4 6.5h1m1 0h3m1 0h1m5 0h4m4 0h2m2 0h3m3 0h1m1 0h3m1 0h1M4 7.5h1m1 0h3m1 0h1m4 0h7m1 0h4m2 0h1m4 0h1m1 0h3m1 0h1M4 8.5h1m1 0h3m1 0h1m1 0h1m2 0h1m1 0h3m1 0h3m1 0h1m3 0h3m2 0h1m1 0h3m1 0h1M4 9.5h1m5 0h1m2 0h3m2 0h4m6 0h1m1 0h1m3 0h1m5 0h1M4 10.5h7m1 0h1m1 0h1m1 0h1m1 0h1m1 0h1m1 0h1m1 0h1m1 0h1m1 0h1m1 0h1m1 0h1m1 0h7M12 11.5h1m2 0h2m2 0h1m4 0h2m1 0h1m1 0h4M6 12.5h2m2 0h4m1 0h1m1 0h2m3 0h1m3 0h2m1 0h3m1 0h2m1 0h1M5 13.5h1m1 0h3m2 0h1m2 0h6m1 0h1m1 0h3m2 0h1m1 0h1m3 0h1m1 0h1M4 14.5h1m1 0h3m1 0h2m2 0h2m1 0h1m1 0h1m1 0h2m1 0h2m2 0h2m2 0h2m3 0h2M5 15.5h2m2 0h1m2 0h2m1 0h1m2 0h1m1 0h2m2 0h1m1 0h1m2 0h2m1 0h1m3 0h3m1 0h1M6 16.5h3m1 0h2m1 0h1m1 0h1m1 0h2m1 0h2m1 0h1m5 0h3m1 0h2m2 0h2M4 17.5h2m1 0h1m5 0h5m5 0h1m1 0h2m1 0h5m1 0h3m1 0h3M7 18.5h4m3 0h4m3 0h2m1 0h1m3 0h1m1 0h1m1 0h4m2 0h2M4 19.5h6m2 0h1m1 0h2m2 0h1m1 0h6m1 0h2m1 0h3m2 0h1m4 0h1M4 20.5h5m1 0h1m3 0h1m1 0h2m4 0h2m1 0h1m1 0h1m9 0h2M5 21.5h1m3 0h1m1 0h1m1 0h1m2 0h3m1 0h3m2 0h2m1 0h1m2 0h1m2 0h2m4 0h1M5 22.5h2m3 0h1m1 0h2m1 0h2m2 0h1m2 0h1m1 0h1m2 0h1m1 0h4m1 0h1m1 0h2m1 0h2M9 23.5h1m1 0h1m2 0h2m2 0h2m3 0h2m1 0h1m1 0h1m2 0h4m1 0h2m1 0h2M4 24.5h4m2 0h1m4 0h1m1 0h1m1 0h1m2 0h1m4 0h1m1 0h5m2 0h2m1 0h1M9 25.5h1m1 0h4m2 0h2m2 0h1m5 0h2m1 0h1m2 0h1m1 0h1m1 0h1m1 0h1M4 26.5h1m3 0h4m2 0h1m3 0h1m1 0h1m1 0h1m1 0h1m5 0h1m5 0h2M5 27.5h3m3 0h1m3 0h1m1 0h2m1 0h4m3 0h1m1 0h5m3 0h2m1 0h1M8 28.5h1m1 0h1m2 0h1m2 0h3m2 0h1m2 0h1m1 0h1m7 0h1m1 0h1m1 0h2M5 29.5h1m2 0h2m2 0h3m1 0h1m2 0h1m1 0h1m3 0h3m4 0h2m1 0h2m1 0h1m1 0h1M5 30.5h2m1 0h3m2 0h2m1 0h1m1 0h1m1 0h2m2 0h1m1 0h1m1 0h1m1 0h3m5 0h2M4 31.5h1m2 0h1m5 0h1m1 0h1m2 0h1m3 0h2m1 0h2m1 0h1m1 0h1m1 0h2m2 0h1m2 0h2M6 32.5h2m1 0h2m2 0h2m2 0h1m3 0h7m1 0h1m1 0h6m1 0h3M12 33.5h1m2 0h1m2 0h1m1 0h1m2 0h1m1 0h4m2 0h2m3 0h5M4 34.5h7m1 0h1m1 0h1m2 0h2m3 0h2m2 0h1m3 0h1m1 0h1m1 0h1m1 0h2m1 0h2M4 35.5h1m5 0h1m2 0h3m3 0h2m1 0h2m3 0h2m1 0h3m3 0h2M4 36.5h1m1 0h3m1 0h1m2 0h1m1 0h2m2 0h1m2 0h1m1 0h1m1 0h1m3 0h1m1 0h6m2 0h1M4 37.5h1m1 0h3m1 0h1m1 0h2m4 0h1m1 0h1m2 0h2m1 0h1m7 0h1m1 0h1M4 38.5h1m1 0h3m1 0h1m1 0h1m1 0h1m2 0h3m4 0h1m1 0h1m2 0h2m1 0h1m1 0h4m1 0h1M4 39.5h1m5 0h1m3 0h5m2 0h1m1 0h3m1 0h4m4 0h4M4 40.5h7m2 0h1m1 0h3m2 0h2m3 0h1m1 0h1m1 0h2m2 0h1m3 0h4"
     id="path4" /><style
     type="text/css"
     id="style239">
	.st0{fill:#FDD107;}
	.st1{fill:#F89A1C;}
	.st2{fill:#EF3E23;}
	.st3{fill:#F26222;}
</style><ellipse
     style="fill:#ffffff;stroke:#ffffff;stroke-width:0.684211"
     id="path367"
     cx="22.5"
     cy="22.5"
     rx="6.5"
     ry="6.1578946" /><g
     id="g259"
     transform="matrix(0.03138669,0,0,0.03138669,18.482504,18.482504)"><path
       class="st0"
       d="m 118.76887,20.712048 c 0,0 -63.833338,26 -74.333338,83.833332 -10.5,57.83332 37.166671,91.5 86.333328,75.33332 49.16666,-16.16667 70.33334,-51 81.83334,-86.999988 0,0 -9.33334,100.499988 -96.16667,115.499988 -86.833327,15 -118.1666626,-50 -82.166663,-119.833324 10,-21.499996 46.25,-58.916661 84.500003,-67.833328 z"
       id="path241" /><path
       class="st1"
       d="m 118.76887,20.712048 c 0,0 -41.125003,3.666667 -83.250003,61.041667 -42.1249995,57.375005 -28.1249995,139.125005 34.25,149.375005 62.375003,10.25 115.874993,-44.875 133.500003,-82.375 17.62501,-37.5 15.16667,-61.458333 9.75,-77.874997 0,0 0.66667,36.416667 -13.33333,59.666667 -14,23.25 -29.75,46.33333 -65.08333,62.16667 -35.333327,15.83334 -74.166671,13.75 -95.416671,-19.25 -21.25,-33 -5.916664,-76.083337 -0.291664,-85.333337 5.625,-9.25 33.499992,-54.333343 79.874995,-67.416675 z"
       id="path243" /><path
       class="st2"
       d="m 73.018867,39.628715 c 0,0 38.125003,-28.125 76.874993,-28.125 38.74999,0 63,28.25 68.5,52.25 5.5,24 6,54.125005 -11.5,87.624995 -17.5,33.49999 -37.375,56 -79.12499,76.125 -41.749995,20.125 -84.625003,2.75 -84.625003,2.75 0,0 25.976975,25.87501 71.050983,16.5 45.07401,-9.375 82.24068,-40.875 98.40735,-69.5 16.16667,-28.625 28.79166,-57.37499 27.66666,-92.249995 -1.125,-34.875 -23.75,-54.5 -31.25,-60.25 -7.5,-5.75 -23.1875,-17.8124995 -58.1875,-16.5624995 -35,1.25 -64.374993,21.6249995 -77.812493,31.4374995 z"
       id="path245" /><path
       class="st3"
       d="m 73.018867,39.628715 c 0,0 35.000003,-32.8124995 82.437493,-32.8124995 47.43749,0 69.1875,24.8124995 78.875,44.6874995 9.6875,19.875 21.8125,70.000005 -12.1875,122.999995 -34,52.99999 -74.625,67.375 -93.625,71.625 -19,4.25 -42.431145,4.26916 -59.111405,-1.23 0,0 35.194745,8.39667 66.778075,-7.43666 31.58333,-15.83333 51.66667,-32.16667 74.08333,-68.83334 22.41666,-36.66667 25.91667,-72.749995 22.16667,-93.916659 -3.75,-21.166664 -12.16667,-42.416671 -36.5,-56.333336 C 171.6022,4.4620514 139.20636,7.8474645 121.45637,13.847464 c -17.74999,6 -29.468753,12.562501 -48.437503,25.781251 z"
       id="path247" /></g></svg>
