<?xml version="1.0" encoding="utf-8"?><!DOCTYPE svg PUBLIC "-//W3C//DTD SVG 1.1//EN" "http://www.w3.org/Graphics/SVG/1.1/DTD/svg11.dtd"><svg xmlns="http://www.w3.org/2000/svg" viewBox="0 0 57 57" shape-rendering="crispEdges"><path fill="#ffffff" d="M0 0h57v57H0z"/><path stroke="#000000" d="M4 4.5h7m1 0h1m2 0h2m1 0h1m3 0h2m1 0h1m1 0h1m3 0h4m1 0h3m1 0h1m3 0h1m1 0h7M4 5.5h1m5 0h1m1 0h1m4 0h6m3 0h1m1 0h2m3 0h1m1 0h1m1 0h1m2 0h5m1 0h1m5 0h1M4 6.5h1m1 0h3m1 0h1m2 0h1m1 0h3m4 0h3m1 0h3m1 0h2m2 0h1m1 0h2m5 0h2m1 0h1m1 0h3m1 0h1M4 7.5h1m1 0h3m1 0h1m1 0h1m1 0h2m4 0h1m2 0h1m1 0h3m1 0h2m2 0h2m1 0h1m1 0h1m4 0h1m2 0h1m1 0h3m1 0h1M4 8.5h1m1 0h3m1 0h1m1 0h3m3 0h5m1 0h1m1 0h7m1 0h1m1 0h2m1 0h2m5 0h1m1 0h3m1 0h1M4 9.5h1m5 0h1m1 0h1m1 0h1m1 0h1m1 0h3m2 0h4m3 0h5m2 0h2m1 0h3m3 0h1m5 0h1M4 10.5h7m1 0h1m1 0h1m1 0h1m1 0h1m1 0h1m1 0h1m1 0h1m1 0h1m1 0h1m1 0h1m1 0h1m1 0h1m1 0h1m1 0h1m1 0h1m1 0h1m1 0h1m1 0h7M13 11.5h3m1 0h1m3 0h1m1 0h1m2 0h1m3 0h5m3 0h2m1 0h4M7 12.5h1m2 0h1m4 0h1m1 0h2m1 0h11m3 0h2m1 0h1m3 0h2m4 0h3m1 0h2M4 13.5h1m1 0h2m6 0h1m4 0h1m3 0h1m1 0h1m1 0h2m1 0h1m3 0h3m2 0h2m4 0h1m1 0h1m2 0h3M5 14.5h4m1 0h2m3 0h1m1 0h1m6 0h2m1 0h1m1 0h1m2 0h2m1 0h1m2 0h2m1 0h1m1 0h1m4 0h5M7 15.5h1m3 0h2m3 0h1m8 0h1m2 0h2m6 0h1m3 0h1m3 0h2m5 0h1M4 16.5h4m2 0h3m1 0h1m1 0h2m1 0h2m1 0h1m3 0h2m1 0h1m2 0h5m1 0h5m3 0h5M8 17.5h2m2 0h1m2 0h3m3 0h1m3 0h1m2 0h5m5 0h1m2 0h1m1 0h2m4 0h4M4 18.5h1m1 0h2m2 0h2m3 0h2m1 0h3m3 0h2m5 0h3m1 0h2m2 0h1m7 0h1m1 0h4M4 19.5h1m1 0h4m5 0h2m1 0h1m5 0h2m2 0h1m2 0h1m1 0h1m2 0h2m2 0h2m1 0h2m1 0h4m1 0h1M4 20.5h1m1 0h2m1 0h2m2 0h2m1 0h4m1 0h1m1 0h1m3 0h1m1 0h1m1 0h2m1 0h4m1 0h2m1 0h1m5 0h2m1 0h2M4 21.5h1m7 0h1m2 0h2m4 0h1m4 0h1m10 0h1m1 0h4m1 0h3m2 0h2m1 0h1M5 22.5h1m1 0h1m2 0h3m1 0h1m1 0h2m3 0h4m1 0h2m2 0h1m2 0h1m2 0h4m1 0h2m3 0h2m2 0h1m1 0h1M5 23.5h1m1 0h2m2 0h2m1 0h1m1 0h3m2 0h1m1 0h1m1 0h1m1 0h1m1 0h1m1 0h1m2 0h3m1 0h5m2 0h1m1 0h2m1 0h3M4 24.5h2m1 0h4m2 0h1m1 0h2m2 0h2m1 0h3m1 0h1m1 0h3m1 0h1m2 0h2m1 0h1m1 0h3m2 0h3m1 0h1m1 0h2M4 25.5h3m10 0h1m1 0h1m1 0h1m1 0h1m1 0h2m1 0h1m3 0h1m1 0h1m6 0h1m1 0h1m3 0h1m2 0h3M4 26.5h12m2 0h2m1 0h1m1 0h1m1 0h6m1 0h2m1 0h2m1 0h2m1 0h1m2 0h5m1 0h3M4 27.5h1m1 0h3m3 0h7m2 0h1m1 0h1m1 0h2m3 0h1m2 0h6m1 0h1m2 0h2m3 0h1m2 0h2M6 28.5h3m1 0h1m1 0h1m3 0h2m1 0h2m1 0h2m2 0h1m1 0h1m1 0h1m2 0h3m1 0h5m2 0h1m1 0h1m1 0h1m3 0h1M4 29.5h3m1 0h1m3 0h2m1 0h1m4 0h2m1 0h2m1 0h1m3 0h1m1 0h3m1 0h1m1 0h4m1 0h2m3 0h1m2 0h1M4 30.5h1m1 0h1m1 0h5m1 0h2m1 0h1m5 0h1m2 0h6m1 0h1m1 0h2m5 0h1m1 0h7M5 31.5h1m3 0h1m1 0h1m1 0h5m4 0h8m2 0h3m3 0h3m1 0h1m1 0h1m1 0h1m4 0h2M5 32.5h6m1 0h1m1 0h1m5 0h4m1 0h1m3 0h1m3 0h1m1 0h6m1 0h1m2 0h1m2 0h4M5 33.5h2m2 0h1m2 0h2m2 0h1m3 0h1m2 0h1m2 0h1m1 0h1m2 0h3m2 0h1m2 0h7m1 0h2m3 0h1M4 34.5h7m2 0h5m3 0h2m2 0h2m1 0h1m3 0h3m1 0h1m2 0h2m3 0h1m1 0h4m2 0h1M4 35.5h3m1 0h1m3 0h4m2 0h2m2 0h2m1 0h2m5 0h1m1 0h2m1 0h1m7 0h2m3 0h1M4 36.5h3m1 0h3m1 0h2m2 0h1m1 0h1m2 0h2m1 0h2m4 0h1m1 0h1m1 0h1m2 0h6m2 0h4m2 0h1M4 37.5h1m1 0h3m2 0h1m1 0h3m1 0h1m2 0h1m3 0h3m1 0h2m1 0h1m2 0h1m8 0h4m2 0h1m1 0h2M5 38.5h2m2 0h3m2 0h3m4 0h1m1 0h1m2 0h1m1 0h1m2 0h3m1 0h2m1 0h1m1 0h1m4 0h2m1 0h5M5 39.5h1m1 0h2m2 0h1m1 0h1m2 0h1m1 0h1m2 0h10m1 0h1m2 0h2m3 0h1m1 0h1m1 0h1m1 0h1m1 0h1M5 40.5h1m1 0h1m1 0h2m1 0h5m1 0h1m1 0h1m4 0h1m6 0h2m1 0h1m1 0h5m3 0h1m1 0h1m3 0h1M4 41.5h2m1 0h1m3 0h3m3 0h5m3 0h1m1 0h4m1 0h2m2 0h3m2 0h1m5 0h1m4 0h1M5 42.5h1m3 0h2m2 0h1m1 0h4m2 0h2m1 0h1m1 0h1m1 0h1m5 0h3m1 0h1m1 0h4m2 0h1m5 0h1M5 43.5h3m3 0h2m1 0h1m1 0h3m3 0h3m1 0h1m2 0h1m2 0h5m1 0h3m1 0h1m2 0h4m1 0h2M4 44.5h3m3 0h1m1 0h2m1 0h2m1 0h4m1 0h9m1 0h1m2 0h1m1 0h1m1 0h2m2 0h5M12 45.5h3m1 0h1m2 0h2m2 0h1m1 0h2m3 0h1m2 0h2m3 0h3m3 0h1m3 0h1m3 0h1M4 46.5h7m2 0h2m2 0h2m2 0h3m2 0h1m1 0h1m1 0h5m3 0h1m1 0h1m1 0h3m1 0h1m1 0h1m1 0h3M4 47.5h1m5 0h1m3 0h4m5 0h4m3 0h1m2 0h1m2 0h2m1 0h6m3 0h1m1 0h1M4 48.5h1m1 0h3m1 0h1m3 0h1m1 0h3m1 0h2m2 0h7m1 0h1m2 0h1m2 0h1m1 0h3m1 0h6m2 0h1M4 49.5h1m1 0h3m1 0h1m1 0h1m2 0h1m2 0h2m3 0h2m4 0h1m1 0h1m2 0h3m3 0h1m7 0h2m1 0h1M4 50.5h1m1 0h3m1 0h1m3 0h2m6 0h6m1 0h4m1 0h1m2 0h3m1 0h1m3 0h2m1 0h5M4 51.5h1m5 0h1m2 0h2m1 0h1m2 0h2m2 0h1m1 0h2m1 0h1m5 0h2m4 0h1m4 0h1M4 52.5h7m2 0h3m1 0h2m3 0h4m1 0h1m1 0h4m2 0h3m1 0h3m2 0h2m2 0h1m2 0h2"/></svg>
